<?xml version="1.0" encoding="utf-8"?>
<!-- Generator: Adobe Illustrator 22.1.0, SVG Export Plug-In . SVG Version: 6.00 Build 0)  -->
<svg version="1.1" id="Layer_1" xmlns="http://www.w3.org/2000/svg" xmlns:xlink="http://www.w3.org/1999/xlink" x="0px" y="0px"
	 viewBox="0 0 1785 445.6" style="enable-background:new 0 0 1785 445.6;" xml:space="preserve">
<style type="text/css">
	.st0{fill:#673AB7;}
</style>
<g>
	<g>
		<path class="st0" d="M585.5,122.5c0,22.7-6.8,40.9-20.2,54.4C549.9,192.9,530,201,505.4,201c-23.5,0-43.5-8.2-59.9-24.5
			c-16.5-16.3-24.7-36.5-24.7-60.6c0-24.1,8.2-44.3,24.7-60.6c16.5-16.3,36.4-24.5,59.9-24.5c11.7,0,22.8,2.3,33.4,6.8
			c10.6,4.5,19.1,10.6,25.5,18.2L550,70.2c-10.8-12.9-25.6-19.3-44.6-19.3c-17.1,0-32,6-44.5,18.1c-12.5,12.1-18.8,27.7-18.8,47
			c0,19.3,6.3,34.9,18.8,47c12.5,12.1,27.3,18.1,44.5,18.1c18.2,0,33.4-6.1,45.5-18.2c7.9-7.9,12.4-18.9,13.6-33h-59.1v-19.6h78.9
			C585.1,114.5,585.5,118.6,585.5,122.5z"/>
		<path class="st0" d="M606.1,197.3V34.5H656c25,0,45,7.5,60.1,22.6c15,15.1,22.5,34.7,22.5,58.8c0,24.1-7.5,43.7-22.5,58.8
			c-15,15.1-35,22.6-60.1,22.6H606.1z M627.1,177.3H656c18.8,0,33.7-5.4,44.7-16.2c11-10.8,16.5-25.9,16.5-45.3
			c0-19.3-5.5-34.3-16.5-45.2c-11-10.8-25.9-16.3-44.7-16.3h-28.9V177.3z"/>
		<path class="st0" d="M916.1,122.5c0,22.7-6.7,40.9-20.2,54.4C880.5,192.9,860.6,201,836,201c-23.5,0-43.5-8.2-59.9-24.5
			c-16.5-16.3-24.7-36.5-24.7-60.6c0-24.1,8.2-44.3,24.7-60.6C792.5,39,812.5,30.8,836,30.8c11.7,0,22.8,2.3,33.4,6.8
			c10.6,4.5,19.1,10.6,25.5,18.2l-14.3,14.3C869.8,57.3,855,50.8,836,50.8c-17.1,0-32,6-44.5,18.1c-12.5,12.1-18.8,27.7-18.8,47
			c0,19.3,6.3,34.9,18.8,47c12.5,12.1,27.3,18.1,44.5,18.1c18.2,0,33.4-6.1,45.5-18.2c7.9-7.9,12.4-18.9,13.6-33H836v-19.6H915
			C915.7,114.5,916.1,118.6,916.1,122.5z"/>
		<path class="st0" d="M991.6,197.3V34.5h49.8c25,0,45,7.5,60.1,22.6c15,15.1,22.5,34.7,22.5,58.8c0,24.1-7.5,43.7-22.5,58.8
			c-15,15.1-35,22.6-60.1,22.6H991.6z M1012.6,177.3h28.9c18.8,0,33.7-5.4,44.7-16.2c11-10.8,16.5-25.9,16.5-45.3
			c0-19.3-5.5-34.3-16.5-45.2c-11-10.8-25.9-16.3-44.7-16.3h-28.9V177.3z"/>
		<path class="st0" d="M1192.4,201c-16.8,0-30.5-5.6-41.1-16.8c-10.5-11.2-15.8-25.4-15.8-42.5c0-16.2,5.1-30.2,15.4-41.9
			c10.2-11.7,23.3-17.5,39.2-17.5c16.5,0,29.8,5.4,39.7,16.2c9.9,10.8,14.9,25.2,14.9,43.2l-0.2,3.9h-88
			c0.6,11.2,4.4,20.1,11.3,26.6c6.9,6.5,15,9.8,24.2,9.8c15,0,25.2-6.4,30.5-19.1l18.7,7.7c-3.6,8.6-9.6,15.9-18,21.7
			C1214.8,198.1,1204.5,201,1192.4,201z M1222.4,128.2c-0.5-6.4-3.4-12.4-8.8-18.2c-5.4-5.8-13.4-8.6-24-8.6
			c-7.7,0-14.4,2.4-20.1,7.3c-5.7,4.9-9.6,11.4-11.7,19.6H1222.4z"/>
		<path class="st0" d="M1288.6,197.3l-45-111.5h22.7l32.8,86.4h0.5l33.2-86.4h22.3l-45.5,111.5H1288.6z"/>
		<path class="st0" d="M1388.1,197.3h-20.9V34.5h95.1v20h-74.2v53.5h66.9v19.6h-66.9V197.3z"/>
		<path class="st0" d="M1525.3,201c-16.8,0-30.5-5.6-41.1-16.8c-10.5-11.2-15.8-25.4-15.8-42.5c0-16.2,5.1-30.2,15.4-41.9
			c10.2-11.7,23.3-17.5,39.2-17.5c16.5,0,29.8,5.4,39.7,16.2c9.9,10.8,14.9,25.2,14.9,43.2l-0.2,3.9h-88
			c0.6,11.2,4.4,20.1,11.3,26.6c6.9,6.5,15,9.8,24.2,9.8c15,0,25.2-6.4,30.5-19.1l18.7,7.7c-3.6,8.6-9.6,15.9-18,21.7
			C1547.7,198.1,1537.5,201,1525.3,201z M1555.4,128.2c-0.5-6.4-3.4-12.4-8.8-18.2c-5.4-5.8-13.4-8.6-24-8.6
			c-7.7,0-14.4,2.4-20.1,7.3c-5.7,4.9-9.6,11.4-11.7,19.6H1555.4z"/>
		<path class="st0" d="M1633.1,201c-12.4,0-22.7-3-30.8-9.1c-8.1-6.1-14.1-13.6-17.9-22.7l18.7-7.7c5.9,14,16,20.9,30.3,20.9
			c6.5,0,11.9-1.4,16-4.3c4.2-2.9,6.3-6.7,6.3-11.4c0-7.3-5.1-12.2-15.2-14.8l-22.5-5.5c-7.1-1.8-13.9-5.3-20.2-10.4
			c-6.4-5.1-9.6-11.9-9.6-20.6c0-9.9,4.4-17.9,13.1-24c8.7-6.1,19.1-9.2,31.1-9.2c9.9,0,18.7,2.2,26.4,6.7
			c7.7,4.5,13.3,10.9,16.6,19.2l-18.2,7.5c-4.1-9.9-12.6-14.8-25.5-14.8c-6.2,0-11.5,1.3-15.7,3.9c-4.2,2.6-6.4,6.1-6.4,10.5
			c0,6.4,4.9,10.7,14.8,13l22.1,5.2c10.5,2.4,18.2,6.6,23.2,12.5c5,5.9,7.5,12.6,7.5,20c0,10-4.1,18.4-12.3,25
			C1656.5,197.6,1646,201,1633.1,201z"/>
		<path class="st0" d="M1739.9,199.2c-11.7,0-20.6-3.1-26.7-9.3c-6.1-6.2-9.2-15-9.2-26.4V105h-19.6V85.9h19.6V51.7h20.9v34.1h27.3
			V105h-27.3v56.9c0,12.1,5,18.2,15,18.2c3.8,0,7-0.6,9.6-1.8l7.3,18C1752.1,198.2,1746.5,199.2,1739.9,199.2z"/>
		<path class="st0" d="M428.7,411.8V248.9h20.9v142.9h70.5v20H428.7z"/>
		<path class="st0" d="M541.3,313.7c10.8-11.3,24.5-16.9,41.2-16.9c16.7,0,30.4,5.7,41.2,16.9c10.8,11.3,16.2,25.4,16.2,42.4
			c0,17-5.4,31.1-16.2,42.4c-10.8,11.3-24.5,16.9-41.2,16.9c-16.7,0-30.4-5.6-41.2-16.9c-10.8-11.3-16.2-25.4-16.2-42.4
			C525.2,339.1,530.6,325,541.3,313.7z M556.9,385.3c7.2,7.4,15.7,11,25.6,11c9.9,0,18.4-3.7,25.6-11c7.2-7.4,10.8-17.1,10.8-29.2
			c0-12.1-3.6-21.9-10.8-29.2c-7.2-7.4-15.7-11-25.6-11c-9.9,0-18.4,3.7-25.6,11c-7.2,7.4-10.8,17.1-10.8,29.2
			C546.1,368.2,549.7,378,556.9,385.3z"/>
		<path class="st0" d="M674.7,300.4v15.5h0.9c3-5.3,7.8-9.8,14.3-13.5c6.5-3.7,13.5-5.6,20.9-5.6c13.8,0,24.3,4.2,31.6,12.7
			c7.3,8.5,10.9,19.9,10.9,34.1v68.2h-20.9v-65.1c0-20.6-9.2-30.9-27.5-30.9c-8.6,0-15.7,3.5-21.2,10.4c-5.5,6.9-8.2,14.9-8.2,24
			v61.7h-20.9V300.4H674.7z"/>
		<path class="st0" d="M820.5,415.5c-14.4,0-26.8-5.7-37.3-17.1c-10.5-11.4-15.7-25.5-15.7-42.3s5.2-30.9,15.7-42.3
			c10.5-11.4,22.9-17.1,37.3-17.1c8.5,0,16.1,1.8,22.9,5.5c6.7,3.6,11.8,8.2,15.1,13.6h0.9l-0.9-15.5v-51.4h20.9v162.9h-20v-15.5
			h-0.9c-3.3,5.5-8.4,10-15.1,13.6C836.6,413.7,829,415.5,820.5,415.5z M823.9,396.4c9.9,0,18.2-3.6,25.1-10.9
			c6.9-7.3,10.4-17.1,10.4-29.3s-3.5-22.1-10.4-29.3c-6.9-7.3-15.3-10.9-25.1-10.9c-9.7,0-18.1,3.7-25,11
			c-7,7.4-10.5,17.1-10.5,29.2c0,12.1,3.5,21.9,10.5,29.2C805.8,392.7,814.2,396.4,823.9,396.4z"/>
		<path class="st0" d="M910.5,313.7c10.8-11.3,24.5-16.9,41.2-16.9c16.7,0,30.4,5.7,41.2,16.9c10.8,11.3,16.2,25.4,16.2,42.4
			c0,17-5.4,31.1-16.2,42.4c-10.8,11.3-24.5,16.9-41.2,16.9c-16.7,0-30.4-5.6-41.2-16.9c-10.8-11.3-16.2-25.4-16.2-42.4
			C894.4,339.1,899.8,325,910.5,313.7z M926.1,385.3c7.2,7.4,15.7,11,25.6,11c9.9,0,18.4-3.7,25.6-11c7.2-7.4,10.8-17.1,10.8-29.2
			c0-12.1-3.6-21.9-10.8-29.2c-7.2-7.4-15.7-11-25.6-11c-9.9,0-18.4,3.7-25.6,11c-7.2,7.4-10.8,17.1-10.8,29.2
			C915.3,368.2,918.9,378,926.1,385.3z"/>
		<path class="st0" d="M1043.9,300.4v15.5h0.9c3-5.3,7.8-9.8,14.3-13.5c6.5-3.7,13.5-5.6,20.9-5.6c13.8,0,24.3,4.2,31.6,12.7
			c7.3,8.5,10.9,19.9,10.9,34.1v68.2h-20.9v-65.1c0-20.6-9.2-30.9-27.5-30.9c-8.6,0-15.7,3.5-21.2,10.4c-5.5,6.9-8.2,14.9-8.2,24
			v61.7h-20.9V300.4H1043.9z"/>
		<path class="st0" d="M1292.8,411.8h-99.2v-20.9c29.7-29.9,48.8-49.4,57.1-58.5c7.4-8.3,12.4-14.7,15-19c2.6-4.3,3.9-9.7,3.9-16
			c0-6.5-2.6-12.3-7.7-17.3c-5.2-5-12.1-7.5-20.7-7.5c-7.9,0-14.3,2.3-19.1,6.9c-4.9,4.6-8,9.6-9.3,14.9l-19.1-7.7
			c2.6-8.2,8-15.9,16.2-23.2c8.2-7.3,18.8-10.9,31.8-10.9c14.4,0,26.2,4.4,35.5,13.2c9.2,8.8,13.9,19.3,13.9,31.6
			c0,15.2-8.3,31.4-24.8,48.7l-45.5,45.7h72.1V411.8z"/>
		<path class="st0" d="M1412.4,392c-11.5,15.6-26.6,23.4-45.3,23.4s-33.7-7.8-45.3-23.4c-11.5-15.6-17.3-35-17.3-58
			c0-23.2,5.8-42.6,17.3-58.1c11.5-15.5,26.6-23.3,45.3-23.3s33.7,7.8,45.3,23.3c11.5,15.5,17.3,34.9,17.3,58.1
			C1429.7,357.1,1424,376.4,1412.4,392z M1367.2,395.5c12.4,0,22.4-5.8,29.9-17.5c7.5-11.7,11.3-26.3,11.3-43.9
			c0-17.7-3.8-32.4-11.3-44c-7.5-11.6-17.5-17.4-29.9-17.4c-12.6,0-22.6,5.8-30,17.4c-7.4,11.6-11.1,26.3-11.1,44
			c0,17.6,3.7,32.2,11.1,43.9C1344.6,389.6,1354.6,395.5,1367.2,395.5z"/>
		<path class="st0" d="M1496,411.8h-20.9V282.2l-30.3,13.2l-8-17.7l45.7-21.4h13.4V411.8z"/>
		<path class="st0" d="M1610.6,402.1c-10.2,9-22.7,13.4-37.5,13.4c-14.9,0-27.4-4.5-37.5-13.4c-10.2-8.9-15.2-20-15.2-33.2
			c0-8.6,2.3-16.3,7.1-22.9c4.7-6.6,10.8-11.8,18.4-15.6v-0.9c-5.9-3.8-10.8-8.6-14.6-14.4c-3.8-5.8-5.7-11.9-5.7-18.3
			c0-12.6,4.5-23.1,13.4-31.5c8.9-8.4,20.3-12.6,34.1-12.6c13.8,0,25.2,4.2,34.1,12.6c8.9,8.4,13.4,18.9,13.4,31.5
			c0,6.4-1.9,12.5-5.7,18.3c-3.8,5.8-8.6,10.7-14.6,14.4v0.9c7.6,3.8,13.7,9,18.4,15.6c4.7,6.6,7.1,14.2,7.1,22.9
			C1625.9,382,1620.8,393.1,1610.6,402.1z M1550.8,387.7c6.1,5.2,13.5,7.7,22.3,7.7c8.8,0,16.2-2.6,22.3-7.7
			c6.1-5.2,9.1-11.8,9.1-20c0-8-3-14.6-9.1-19.8c-6.1-5.2-13.5-7.7-22.3-7.7c-8.8,0-16.2,2.6-22.3,7.7c-6.1,5.2-9.1,11.8-9.1,19.8
			C1541.7,375.9,1544.7,382.6,1550.8,387.7z M1554.3,313.9c4.9,4.5,11.2,6.7,18.8,6.7c7.6,0,13.8-2.2,18.8-6.7
			c4.9-4.5,7.4-10.4,7.4-17.6c0-7.3-2.5-13-7.4-17.3c-4.9-4.2-11.2-6.4-18.8-6.4c-7.6,0-13.8,2.1-18.8,6.4c-4.9,4.2-7.4,10-7.4,17.3
			C1546.9,303.5,1549.4,309.4,1554.3,313.9z"/>
	</g>
	<g id="XMLID_261_">
		<path id="XMLID_259_" class="st0" d="M82,14.7H14.9l190.9,330.2l33.5-58L82,14.7z"/>
		<path id="XMLID_258_" class="st0" d="M263.9,203L155.5,14.7H89.7l153.5,265.7l21.9-37.4c3.9-6.4,5.2-12.9,5.2-20.6
			C270.3,215.9,267.7,208.2,263.9,203z"/>
		<path id="XMLID_257_" class="st0" d="M131,230.1L17.5,427.4h65.8l81.3-140.6L131,230.1z"/>
		<path id="XMLID_256_" class="st0" d="M168.4,293.3L91,427.4h67.1l43.9-76.1L168.4,293.3z"/>
	</g>
</g>
</svg>
